PathFileType	4	(X/Y/Z)	1H_nor_slow_left.trc
DataRate	CameraRate	NumFrames	NumMarkers	Units	OrigDataRate	OrigDataStartFrame	OrigNumFrames
250.00	250.00	13	18	mm	250.00	5121	20480
Frame#	Time	c7	r_should	l_should	clavicle	r_upa	r_elb_l	r_elb_m	r_low	r_wri_l	r_wri_m	r_met	l_upa	l_elb_l	l_elb_m	l_low	l_wri_l	l_wri_m	l_met
	X1	Y1	Z1	X2	Y2	Z2	X3	Y3	Z3	X4	Y4	Z4	X5	Y5	Z5	X6	Y6	Z6	X7	Y7	Z7	X8	Y8	Z8	X9	Y9	Z9	X10	Y10	Z10	X11	Y11	Z11	X12	Y12	Z12	X13	Y13	Z13	X14	Y14	Z14	X15	Y15	Z15	X16	Y16	Z16	X17	Y17	Z17	X18	Y18	Z18
5121	20.48000	1197.50195	1423.16797	184.87227	1227.69287	1354.31152	355.51178	1255.30493	1376.79834	15.40465	1320.80823	1293.24841	192.86194	1224.62354	1148.86670	428.34860	1215.98193	1066.15576	453.79126	1151.38379	1033.20020	387.51559	1258.17798	945.24951	442.79776	1307.10840	834.04163	418.74530	1236.47644	816.43915	443.54391	1325.11584	766.61743	456.81250	1296.35425	1177.91638	-65.68551	1318.73254	1110.25916	-82.97176	1243.24341	1071.05420	-30.10642	1379.55798	1101.58740	-5.14564	1408.17847	1125.36694	105.11447	1404.73340	1046.75439	113.93827	1479.97595	1110.61292	152.15143
5122	20.48400	1197.44348	1423.18091	184.86301	1227.66760	1354.33667	355.49899	1255.16943	1376.78809	15.39397	1320.75598	1293.26843	192.82025	1224.60938	1148.90381	428.37537	1215.99316	1066.19385	453.81558	1151.39404	1033.22522	387.54761	1258.14490	944.65637	442.50363	1307.14783	834.08527	418.79599	1236.51221	816.48114	443.59052	1325.14880	766.66101	456.86838	1296.33691	1177.94043	-65.71537	1318.76343	1110.34753	-83.00154	1243.26965	1071.08398	-30.17196	1378.90247	1101.00012	-5.10936	1407.75293	1125.81580	104.94298	1404.70959	1047.09436	114.12942	1479.88147	1111.04443	152.17937
5123	20.48800	1197.38013	1423.18970	184.84692	1227.64563	1354.35840	355.48044	1255.01599	1376.76404	15.38646	1320.69714	1293.28564	192.77371	1224.59863	1148.93945	428.39789	1216.00049	1066.22241	453.82648	1151.40271	1033.24561	387.57925	1258.15039	944.53217	442.44968	1307.18542	834.13171	418.85669	1236.54443	816.51587	443.63354	1325.19055	766.70203	456.91306	1296.32690	1177.96118	-65.74519	1318.81299	1110.44421	-83.02994	1243.31409	1071.10742	-30.23946	1378.06360	1100.20996	-5.03398	1407.66333	1126.18164	104.86840	1404.00415	1048.01782	113.76433	1479.78259	1111.46436	152.21457
5124	20.49200	1197.31250	1423.19885	184.82205	1227.62256	1354.38196	355.45758	1254.84790	1376.74390	15.37625	1320.63770	1293.30286	192.72974	1224.59363	1148.97229	428.41803	1216.01196	1066.25317	453.85052	1151.41528	1033.26807	387.61600	1258.16589	944.51819	442.45596	1307.21765	834.16907	418.91431	1236.57629	816.55334	443.67676	1325.22803	766.74268	456.95660	1296.31824	1177.98291	-65.77477	1318.87488	1110.54688	-83.06413	1243.35767	1071.13782	-30.33753	1379.20435	1101.74634	-5.10118	1407.97241	1126.36792	104.88144	1402.54749	1049.62354	112.75165	1479.68274	1111.88171	152.25609
5125	20.49600	1197.24377	1423.20447	184.80548	1227.60181	1354.39941	355.44241	1254.66211	1376.72095	15.36819	1320.58069	1293.32190	192.68195	1224.59082	1149.01611	428.44037	1216.03223	1066.28369	453.87598	1151.42603	1033.29517	387.65015	1258.19434	944.53711	442.48959	1307.25024	834.20099	418.94586	1236.60986	816.58276	443.72174	1325.26892	766.78119	456.99768	1296.32214	1178.01184	-65.80564	1318.94873	1110.65417	-83.10005	1243.40649	1071.16125	-30.43993	1379.52051	1102.29199	-5.13485	1408.42163	1126.50708	104.94060	1402.76233	1049.72180	113.05461	1479.58777	1112.29163	152.30466
5126	20.50000	1197.17017	1423.21021	184.79453	1227.58240	1354.42310	355.42828	1254.47424	1376.69629	15.36318	1320.51831	1293.34241	192.64391	1224.59290	1149.04785	428.46075	1216.05798	1066.32886	453.91315	1151.43494	1033.32227	387.68860	1258.22900	944.57397	442.53125	1307.28149	834.23029	418.98471	1236.64417	816.61859	443.76059	1325.31006	766.81793	457.03387	1296.34155	1178.05042	-65.82587	1319.03259	1110.77380	-83.12640	1243.92358	1071.02930	-30.37303	1379.63489	1102.58691	-5.16126	1407.79944	1127.12903	104.78142	1404.02112	1048.90137	114.18561	1479.49194	1112.69666	152.35419
5127	20.50400	1197.09045	1423.21741	184.77884	1227.56409	1354.44324	355.41425	1254.31091	1376.68323	15.32763	1320.45203	1293.35657	192.60114	1224.60083	1149.08081	428.48007	1216.07947	1066.36609	453.93835	1151.44385	1033.34790	387.73203	1258.26782	944.60974	442.56552	1307.30957	834.27240	419.03506	1236.67639	816.65326	443.80936	1325.35242	766.85602	457.06747	1296.37512	1178.08789	-65.84102	1319.12732	1110.90417	-83.15591	1245.03748	1070.71912	-30.09081	1379.68835	1102.82092	-5.17079	1407.66650	1127.51489	104.72913	1404.33838	1048.91663	114.55778	1479.40295	1113.09668	152.40869
5128	20.50800	1197.01025	1423.23120	184.75880	1227.54541	1354.46887	355.40961	1254.14172	1376.66870	15.30849	1320.38330	1293.37292	192.56087	1224.60962	1149.10986	428.49588	1216.09790	1066.39246	453.94373	1151.45593	1033.37341	387.77042	1258.30676	944.63568	442.60330	1307.33728	834.31860	419.07669	1236.70862	816.68500	443.85742	1325.39526	766.89270	457.09708	1296.41602	1178.13416	-65.86091	1319.23767	1111.02075	-83.18545	1245.41138	1070.65540	-30.09266	1379.74097	1103.06433	-5.20771	1407.63452	1127.81995	104.70011	1404.36365	1049.14880	114.72735	1479.32056	1113.49646	152.46994
5129	20.51200	1196.92896	1423.24500	184.73956	1227.52502	1354.49744	355.40411	1253.97058	1376.66040	15.29559	1320.31519	1293.39624	192.52541	1224.62439	1149.14099	428.50858	1216.13208	1066.43005	453.96402	1151.46729	1033.40527	387.81003	1258.34216	944.66699	442.62491	1307.37048	834.35974	419.10727	1236.74316	816.72333	443.89621	1325.43726	766.92902	457.12674	1296.47107	1178.18774	-65.87163	1319.36401	1111.13416	-83.20233	1245.61914	1070.64246	-30.15958	1379.78003	1103.29370	-5.22584	1407.65320	1128.10547	104.69118	1404.32715	1049.47729	114.83315	1479.23889	1113.88977	152.53746
5130	20.51600	1196.84827	1423.26184	184.72296	1227.49414	1354.52380	355.38998	1253.81116	1376.66040	15.27287	1320.24817	1293.41760	192.49716	1224.64465	1149.17407	428.52179	1216.16614	1066.45422	453.97653	1151.47876	1033.43787	387.85220	1258.38208	944.70178	442.65039	1307.40686	834.39246	419.12976	1236.77478	816.77295	443.93964	1325.47974	766.96350	457.15143	1296.53943	1178.24463	-65.87395	1319.50330	1111.24304	-83.21107	1245.78284	1070.64954	-30.23259	1379.82092	1103.50085	-5.23443	1407.70728	1128.39270	104.68804	1404.33936	1049.85242	114.95635	1479.15149	1114.27429	152.59212
5131	20.52000	1196.77161	1423.27954	184.70409	1227.45972	1354.54919	355.37808	1253.66467	1376.65735	15.24487	1320.18188	1293.43774	192.47095	1224.66919	1149.21118	428.53104	1216.20105	1066.47473	453.99088	1151.49451	1033.46875	387.89395	1258.40735	944.72906	442.66504	1307.43579	834.42651	419.15704	1236.81360	816.81488	443.98721	1325.52283	767.00018	457.17056	1296.60999	1178.29785	-65.87450	1319.63977	1111.35913	-83.21960	1245.93188	1070.65515	-30.30603	1379.86975	1103.71326	-5.24765	1407.71521	1128.69458	104.66207	1404.35437	1050.23853	115.10851	1479.06116	1114.65271	152.64508
5132	20.52400	1196.69580	1423.29626	184.68347	1227.41956	1354.57397	355.36447	1253.53772	1376.65308	15.20160	1320.11023	1293.46082	192.43716	1224.69690	1149.24792	428.53540	1216.23828	1066.50000	454.00845	1151.57361	1033.75403	388.15652	1258.44592	944.75604	442.69455	1307.46216	834.46350	419.18747	1236.85791	816.84460	444.02795	1325.56506	767.03186	457.19147	1296.68115	1178.34839	-65.87695	1319.77405	1111.46960	-83.22186	1246.07007	1070.64685	-30.36836	1379.92725	1103.94006	-5.26790	1407.70422	1129.01050	104.62322	1403.68982	1051.11938	114.70443	1478.97571	1115.02490	152.70868
5133	20.52800	1196.61926	1423.31128	184.65845	1227.37378	1354.60022	355.35092	1253.42212	1376.65674	15.16621	1320.03687	1293.48657	192.40919	1224.72339	1149.28687	428.53802	1216.28491	1066.53333	454.03510	1151.72961	1034.35315	388.69226	1258.49036	944.78931	442.72513	1307.50012	834.48877	419.20361	1236.89905	816.86188	444.07175	1325.60522	767.05988	457.20911	1296.75256	1178.39404	-65.88602	1319.89233	1111.58032	-83.22186	1246.18665	1070.64514	-30.43036	1379.98486	1104.16089	-5.29000	1407.69299	1129.33704	104.56735	1402.16443	1052.63025	113.62749	1478.89453	1115.39246	152.77769
